<svg width="40" height="41" viewBox="0 0 40 41" fill="none" xmlns="http://www.w3.org/2000/svg">
<path d="M14.9987 37.1668H24.9987C33.332 37.1668 36.6654 33.8335 36.6654 25.5002V15.5002C36.6654 7.16683 33.332 3.8335 24.9987 3.8335H14.9987C6.66536 3.8335 3.33203 7.16683 3.33203 15.5002V25.5002C3.33203 33.8335 6.66536 37.1668 14.9987 37.1668Z" stroke="white" stroke-width="1.5" stroke-linecap="round" stroke-linejoin="round"/>
<path d="M15.0013 17.1667C16.8423 17.1667 18.3346 15.6743 18.3346 13.8333C18.3346 11.9924 16.8423 10.5 15.0013 10.5C13.1604 10.5 11.668 11.9924 11.668 13.8333C11.668 15.6743 13.1604 17.1667 15.0013 17.1667Z" stroke="white" stroke-width="1.5" stroke-linecap="round" stroke-linejoin="round"/>
<path d="M4.44922 32.0831L12.6659 26.5664C13.9826 25.6831 15.8826 25.7831 17.0659 26.7998L17.6159 27.2831C18.9159 28.3998 21.0159 28.3998 22.3159 27.2831L29.2492 21.3331C30.5492 20.2164 32.6492 20.2164 33.9492 21.3331L36.6659 23.6664" stroke="white" stroke-width="1.5" stroke-linecap="round" stroke-linejoin="round"/>
</svg>
