<svg width="1878" height="1386" viewBox="0 0 1878 1386" fill="none" xmlns="http://www.w3.org/2000/svg">
<path d="M34.2725 80.1895L2.78772e-06 60.384L4.51776e-06 20.8054L34.2725 0.999918L68.5611 20.8054M34.2725 80.1895L68.5611 60.384M34.2725 80.1895L34.2725 119.784M68.5611 60.384L68.5611 20.8054M68.5611 60.384L102.85 80.1895M68.5611 20.8054L102.85 0.999921L137.138 20.8054M102.85 80.1895L137.138 60.384M102.85 80.1895L102.85 119.784M137.138 60.384L137.138 20.8054M137.138 60.384L171.427 80.1895M137.138 20.8054L171.427 0.999924L205.716 20.8054M171.427 80.1895L205.716 60.384M171.427 80.1895L171.427 119.784M205.716 60.384L205.716 20.8054M205.716 60.384L240.004 80.1895M205.716 20.8054L240.004 0.999927L274.277 20.8054M240.004 80.1895L274.277 60.384M240.004 80.1895L240.004 119.784M274.277 60.384L274.277 20.8054M274.277 60.384L308.565 80.1895M274.277 20.8054L308.565 0.99993L342.854 20.8054M308.565 80.1895L342.854 60.384M308.565 80.1895L308.565 119.784M342.854 60.384L342.854 20.8054M342.854 60.384L377.142 80.1895M342.854 20.8054L377.142 0.999933L411.431 20.8054M377.142 80.1895L411.431 60.384M377.142 80.1895L377.142 119.784M411.431 60.384L411.431 20.8054M411.431 60.384L445.72 80.1895M411.431 20.8054L445.72 0.999936L480.008 20.8054M445.72 80.1895L480.008 60.384M445.72 80.1895L445.72 119.784M480.008 60.384L480.008 20.8054M480.008 60.384L514.281 80.1895M480.008 20.8054L514.281 0.999939L548.569 20.8054M514.281 80.1895L548.569 60.384M514.281 80.1895L514.281 119.784M548.569 60.384L548.569 20.8054M548.569 60.384L582.858 80.1895M548.569 20.8054L582.858 0.999942L617.146 20.8054M582.858 80.1895L617.146 60.384M582.858 80.1895L582.858 119.784M617.146 60.384L617.146 20.8054M617.146 60.384L651.435 80.1895M617.146 20.8054L651.435 0.999945L685.724 20.8054M651.435 80.1895L685.724 60.384M651.435 80.1895L651.435 119.784M685.724 60.384L685.724 20.8054M685.724 60.384L720.012 80.1895M685.724 20.8054L720.012 0.999948L754.285 20.8054M720.012 80.1895L754.285 60.384M720.012 80.1895L720.012 119.784M754.285 60.384L754.285 20.8054M754.285 60.384L788.573 80.1895M754.285 20.8054L788.573 0.999951L822.862 20.8054M788.573 80.1895L822.862 60.384M788.573 80.1895L788.573 119.784M822.862 60.384L822.862 20.8054M822.862 60.384L857.15 80.1895M822.862 20.8054L857.15 0.999954L891.439 20.8054M857.15 80.1895L891.439 60.384M857.15 80.1895L857.15 119.784M891.439 60.384L891.439 20.8054M891.439 60.384L925.728 80.1895M891.439 20.8054L925.728 0.999957L960.016 20.8054M925.728 80.1895L960.016 60.3841M925.728 80.1895L925.728 119.784M960.016 60.3841L960.016 20.8054M960.016 60.3841L994.289 80.1895M960.016 20.8054L994.289 0.99996L1028.58 20.8054M994.289 80.1895L1028.58 60.3841M994.289 80.1895L994.289 119.784M1028.58 60.3841L1028.58 20.8054M1028.58 60.3841L1062.87 80.1895M1028.58 20.8054L1062.87 0.999963L1097.15 20.8054M1062.87 80.1895L1097.15 60.3841M1062.87 80.1895L1062.87 119.784M1097.15 60.3841L1097.15 20.8054M1097.15 60.3841L1131.44 80.1895M1097.15 20.8054L1131.44 0.999966L1165.73 20.8054M1131.44 80.1895L1165.73 60.3841M1131.44 80.1895L1131.44 119.784M1165.73 60.3841L1165.73 20.8054M1165.73 60.3841L1200.02 80.1895M1165.73 20.8054L1200.02 0.999969L1234.29 20.8054M1200.02 80.1895L1234.29 60.3841M1200.02 80.1895L1200.02 119.784M1234.29 60.3841L1234.29 20.8054M1234.29 60.3841L1268.58 80.1895M1234.29 20.8054L1268.58 0.999972L1302.87 20.8054M1268.58 80.1895L1302.87 60.3841M1268.58 80.1895L1268.58 119.784M1302.87 60.3841L1302.87 20.8054M1302.87 60.3841L1337.16 80.1895M1302.87 20.8054L1337.16 0.999975L1371.45 20.8054M1337.16 80.1895L1371.45 60.3841M1337.16 80.1895L1337.16 119.784M1371.45 60.3841L1371.45 20.8054M1371.45 60.3841L1405.74 80.1895M1371.45 20.8054L1405.74 0.999978L1440.02 20.8054M1405.74 80.1895L1440.02 60.3841M1405.74 80.1895L1405.74 119.784M1440.02 60.3841L1440.02 20.8054M1440.02 60.3841L1474.3 80.1895M1440.02 20.8054L1474.3 0.999981L1508.59 20.8054M1474.3 80.1895L1508.59 60.3841M1474.3 80.1895L1474.3 119.784M1508.59 60.3841L1508.59 20.8054M1508.59 60.3841L1542.87 80.1895M1508.59 20.8054L1542.87 0.999984L1577.16 20.8054M1542.87 80.1895L1577.16 60.3841M1542.87 80.1895L1542.87 119.784M1577.16 60.3841L1577.16 20.8054M1577.16 60.3841L1611.45 80.1895M1577.16 20.8054L1611.45 0.999987L1645.66 20.8054M1611.45 80.1895L1645.66 60.3841M1611.45 80.1895L1611.45 119.784M1645.66 60.3841L1645.66 20.8054M1645.66 60.3841L1680.01 80.1895M1645.66 20.8054L1680.01 0.99999L1714.37 20.8054M1680.01 80.1895L1714.37 60.3841M1680.01 80.1895L1680.01 119.784M1714.37 60.3841L1714.37 20.8054M1714.37 60.3841L1748.56 80.1895M1714.37 20.8054L1748.56 0.999993L1782.91 20.8054M1748.56 80.1895L1782.91 60.3841M1748.56 80.1895L1748.56 119.784M1782.91 60.3841L1782.91 20.8054M1782.91 60.3841L1817.1 80.1895M1782.91 20.8054L1817.1 0.999996L1851.46 20.8054M1817.1 80.1895L1851.46 60.3841M1817.1 80.1895L1817.1 119.784M1851.46 60.3841L1851.46 20.8054M1851.46 60.3841L1885.81 80.1895M1851.46 20.8054L1885.81 0.999999L1920 20.8055L1920 60.3841L1885.81 80.1895M1885.81 80.1895L1885.81 119.784M34.2725 198.958L-2.40451e-06 179.168L-6.73765e-07 139.574L34.2725 119.784M34.2725 198.958L68.5611 179.168M34.2725 198.958L34.2725 238.552M68.5611 179.168L68.5611 139.574M68.5611 179.168L102.85 198.958M68.5611 139.574L34.2725 119.784M68.5611 139.574L102.85 119.784M102.85 198.958L137.138 179.168M102.85 198.958L102.85 238.552M137.138 179.168L137.138 139.574M137.138 179.168L171.427 198.958M137.138 139.574L102.85 119.784M137.138 139.574L171.427 119.784M171.427 198.958L205.715 179.168M171.427 198.958L171.427 238.552M205.715 179.168L205.716 139.574M205.715 179.168L240.004 198.958M205.716 139.574L171.427 119.784M205.716 139.574L240.004 119.784M240.004 198.958L274.277 179.168M240.004 198.958L240.004 238.552M274.277 179.168L274.277 139.574M274.277 179.168L308.565 198.958M274.277 139.574L240.004 119.784M274.277 139.574L308.565 119.784M308.565 198.958L342.854 179.168M308.565 198.958L308.565 238.552M342.854 179.168L342.854 139.574M342.854 179.168L377.142 198.958M342.854 139.574L308.565 119.784M342.854 139.574L377.142 119.784M377.142 198.958L411.431 179.168M377.142 198.958L377.142 238.552M411.431 179.168L411.431 139.574M411.431 179.168L445.72 198.958M411.431 139.574L377.142 119.784M411.431 139.574L445.72 119.784M445.72 198.958L480.008 179.168M445.72 198.958L445.72 238.552M480.008 179.168L480.008 139.574M480.008 179.168L514.281 198.958M480.008 139.574L445.72 119.784M480.008 139.574L514.281 119.784M514.281 198.958L548.569 179.168M514.281 198.958L514.281 238.552M548.569 179.168L548.569 139.574M548.569 179.168L582.858 198.958M548.569 139.574L514.281 119.784M548.569 139.574L582.858 119.784M582.858 198.958L617.146 179.168M582.858 198.958L582.858 238.552M617.146 179.168L617.146 139.574M617.146 179.168L651.435 198.958M617.146 139.574L582.858 119.784M617.146 139.574L651.435 119.784M651.435 198.958L685.724 179.168M651.435 198.958L651.435 238.552M685.724 179.168L685.724 139.574M685.724 179.168L720.012 198.958M685.724 139.574L651.435 119.784M685.724 139.574L720.012 119.784M720.012 198.958L754.285 179.168M720.012 198.958L720.012 238.552M754.285 179.168L754.285 139.574M754.285 179.168L788.573 198.958M754.285 139.574L720.012 119.784M754.285 139.574L788.573 119.784M788.573 198.958L822.862 179.168M788.573 198.958L788.573 238.552M822.862 179.168L822.862 139.574M822.862 179.168L857.15 198.958M822.862 139.574L788.573 119.784M822.862 139.574L857.15 119.784M857.15 198.958L891.439 179.168M857.15 198.958L857.15 238.552M891.439 179.168L891.439 139.574M891.439 179.168L925.728 198.958M891.439 139.574L857.15 119.784M891.439 139.574L925.728 119.784M925.728 198.958L960.016 179.168M925.728 198.958L925.728 238.552M960.016 179.168L960.016 139.574M960.016 179.168L994.289 198.958M960.016 139.574L925.728 119.784M960.016 139.574L994.289 119.784M994.289 198.958L1028.58 179.168M994.289 198.958L994.289 238.552M1028.58 179.168L1028.58 139.574M1028.58 179.168L1062.87 198.958M1028.58 139.574L994.289 119.784M1028.58 139.574L1062.87 119.784M1062.87 198.958L1097.15 179.168M1062.87 198.958L1062.87 238.552M1097.15 179.168L1097.15 139.574M1097.15 179.168L1131.44 198.958M1097.15 139.574L1062.87 119.784M1097.15 139.574L1131.44 119.784M1131.44 198.958L1165.73 179.168M1131.44 198.958L1131.44 238.552M1165.73 179.168L1165.73 139.574M1165.73 179.168L1200.02 198.958M1165.73 139.574L1131.44 119.784M1165.73 139.574L1200.02 119.784M1200.02 198.958L1234.29 179.168M1200.02 198.958L1200.02 238.552M1234.29 179.168L1234.29 139.574M1234.29 179.168L1268.58 198.958M1234.29 139.574L1200.02 119.784M1234.29 139.574L1268.58 119.784M1268.58 198.958L1302.87 179.168M1268.58 198.958L1268.58 238.552M1302.87 179.168L1302.87 139.574M1302.87 179.168L1337.16 198.958M1302.87 139.574L1268.58 119.784M1302.87 139.574L1337.16 119.784M1337.16 198.958L1371.45 179.168M1337.16 198.958L1337.16 238.552M1371.45 179.168L1371.45 139.574M1371.45 179.168L1405.74 198.958M1371.45 139.574L1337.16 119.784M1371.45 139.574L1405.74 119.784M1405.74 198.958L1440.02 179.168M1405.74 198.958L1405.74 238.552M1440.02 179.168L1440.02 139.574M1440.02 179.168L1474.3 198.958M1440.02 139.574L1405.74 119.784M1440.02 139.574L1474.3 119.784M1474.3 198.958L1508.59 179.168M1474.3 198.958L1474.3 238.553M1508.59 179.168L1508.59 139.574M1508.59 179.168L1542.87 198.958M1508.59 139.574L1474.3 119.784M1508.59 139.574L1542.87 119.784M1542.87 198.958L1577.16 179.168M1542.87 198.958L1542.87 238.553M1577.16 179.168L1577.16 139.574M1577.16 179.168L1611.45 198.958M1577.16 139.574L1542.87 119.784M1577.16 139.574L1611.45 119.784M1611.45 198.958L1645.66 179.168M1611.45 198.958L1611.45 238.553M1645.66 179.168L1645.66 139.574M1645.66 179.168L1680.01 198.958M1645.66 139.574L1611.45 119.784M1645.66 139.574L1680.01 119.784M1680.01 198.958L1714.37 179.168M1680.01 198.958L1680.01 238.553M1714.37 179.168L1714.37 139.574M1714.37 179.168L1748.56 198.958M1714.37 139.574L1680.01 119.784M1714.37 139.574L1748.56 119.784M1748.56 198.958L1782.91 179.168M1748.56 198.958L1748.56 238.553M1782.91 179.168L1782.91 139.574M1782.91 179.168L1817.1 198.958M1782.91 139.574L1748.56 119.784M1782.91 139.574L1817.1 119.784M1817.1 198.958L1851.46 179.168M1817.1 198.958L1817.1 238.553M1851.46 179.168L1851.46 139.574M1851.46 179.168L1885.81 198.958M1851.46 139.574L1817.1 119.784M1851.46 139.574L1885.81 119.784M1885.81 198.958L1920 179.168L1920 139.574L1885.81 119.784M1885.81 198.958L1885.81 238.553M34.2725 317.742L-7.59603e-06 297.937L-5.86529e-06 258.342L34.2725 238.552M34.2725 317.742L68.5611 297.937M34.2725 317.742L34.2725 357.337M68.5611 297.937L68.5611 258.342M68.5611 297.937L102.85 317.742M68.5611 258.342L34.2725 238.552M68.5611 258.342L102.85 238.552M102.85 317.742L137.138 297.937M102.85 317.742L102.85 357.337M137.138 297.937L137.138 258.342M137.138 297.937L171.427 317.742M137.138 258.342L102.85 238.552M137.138 258.342L171.427 238.552M171.427 317.742L205.715 297.937M171.427 317.742L171.427 357.337M205.715 297.937L205.715 258.342M205.715 297.937L240.004 317.742M205.715 258.342L171.427 238.552M205.715 258.342L240.004 238.552M240.004 317.742L274.277 297.937M240.004 317.742L240.004 357.337M274.277 297.937L274.277 258.342M274.277 297.937L308.565 317.742M274.277 258.342L240.004 238.552M274.277 258.342L308.565 238.552M308.565 317.742L342.854 297.937M308.565 317.742L308.565 357.337M342.854 297.937L342.854 258.342M342.854 297.937L377.142 317.742M342.854 258.342L308.565 238.552M342.854 258.342L377.142 238.552M377.142 317.742L411.431 297.937M377.142 317.742L377.142 357.337M411.431 297.937L411.431 258.342M411.431 297.937L445.72 317.742M411.431 258.342L377.142 238.552M411.431 258.342L445.72 238.552M445.72 317.742L480.008 297.937M445.72 317.742L445.72 357.337M480.008 297.937L480.008 258.342M480.008 297.937L514.281 317.742M480.008 258.342L445.72 238.552M480.008 258.342L514.281 238.552M514.281 317.742L548.569 297.937M514.281 317.742L514.281 357.337M548.569 297.937L548.569 258.342M548.569 297.937L582.858 317.742M548.569 258.342L514.281 238.552M548.569 258.342L582.858 238.552M582.858 317.742L617.146 297.937M582.858 317.742L582.858 357.337M617.146 297.937L617.146 258.342M617.146 297.937L651.435 317.742M617.146 258.342L582.858 238.552M617.146 258.342L651.435 238.552M651.435 317.742L685.724 297.937M651.435 317.742L651.435 357.337M685.724 297.937L685.724 258.342M685.724 297.937L720.012 317.742M685.724 258.342L651.435 238.552M685.724 258.342L720.012 238.552M720.012 317.742L754.285 297.937M720.012 317.742L720.012 357.337M754.285 297.937L754.285 258.342M754.285 297.937L788.573 317.742M754.285 258.342L720.012 238.552M754.285 258.342L788.573 238.552M788.573 317.742L822.862 297.937M788.573 317.742L788.573 357.337M822.862 297.937L822.862 258.342M822.862 297.937L857.15 317.742M822.862 258.342L788.573 238.552M822.862 258.342L857.15 238.552M857.15 317.742L891.439 297.937M857.15 317.742L857.15 357.337M891.439 297.937L891.439 258.342M891.439 297.937L925.728 317.742M891.439 258.342L857.15 238.552M891.439 258.342L925.728 238.552M925.728 317.742L960.016 297.937M925.728 317.742L925.728 357.337M960.016 297.937L960.016 258.342M960.016 297.937L994.289 317.742M960.016 258.342L925.728 238.552M960.016 258.342L994.289 238.552M994.289 317.742L1028.58 297.937M994.289 317.742L994.289 357.337M1028.58 297.937L1028.58 258.342M1028.58 297.937L1062.87 317.742M1028.58 258.342L994.289 238.552M1028.58 258.342L1062.87 238.552M1062.87 317.742L1097.15 297.937M1062.87 317.742L1062.87 357.337M1097.15 297.937L1097.15 258.342M1097.15 297.937L1131.44 317.742M1097.15 258.342L1062.87 238.552M1097.15 258.342L1131.44 238.552M1131.44 317.742L1165.73 297.937M1131.44 317.742L1131.44 357.337M1165.73 297.937L1165.73 258.342M1165.73 297.937L1200.02 317.742M1165.73 258.342L1131.44 238.552M1165.73 258.342L1200.02 238.552M1200.02 317.742L1234.29 297.937M1200.02 317.742L1200.02 357.337M1234.29 297.937L1234.29 258.342M1234.29 297.937L1268.58 317.742M1234.29 258.342L1200.02 238.552M1234.29 258.342L1268.58 238.552M1268.58 317.742L1302.87 297.937M1268.58 317.742L1268.58 357.337M1302.87 297.937L1302.87 258.342M1302.87 297.937L1337.16 317.742M1302.87 258.342L1268.58 238.552M1302.87 258.342L1337.16 238.552M1337.16 317.742L1371.45 297.937M1337.16 317.742L1337.16 357.337M1371.45 297.937L1371.45 258.342M1371.45 297.937L1405.74 317.742M1371.45 258.342L1337.16 238.552M1371.45 258.342L1405.74 238.552M1405.74 317.742L1440.02 297.937M1405.74 317.742L1405.74 357.337M1440.02 297.937L1440.02 258.342M1440.02 297.937L1474.3 317.742M1440.02 258.342L1405.74 238.552M1440.02 258.342L1474.3 238.553M1474.3 317.742L1508.59 297.937M1474.3 317.742L1474.3 357.337M1508.59 297.937L1508.59 258.342M1508.59 297.937L1542.87 317.742M1508.59 258.342L1474.3 238.553M1508.59 258.342L1542.87 238.553M1542.87 317.742L1577.16 297.937M1542.87 317.742L1542.87 357.337M1577.16 297.937L1577.16 258.342M1577.16 297.937L1611.45 317.742M1577.16 258.342L1542.87 238.553M1577.16 258.342L1611.45 238.553M1611.45 317.742L1645.66 297.937M1611.45 317.742L1611.45 357.337M1645.66 297.937L1645.66 258.342M1645.66 297.937L1680.01 317.742M1645.66 258.342L1611.45 238.553M1645.66 258.342L1680.01 238.553M1680.01 317.742L1714.37 297.937M1680.01 317.742L1680.01 357.337M1714.37 297.937L1714.37 258.342M1714.37 297.937L1748.56 317.742M1714.37 258.342L1680.01 238.553M1714.37 258.342L1748.56 238.553M1748.56 317.742L1782.91 297.937M1748.56 317.742L1748.56 357.337M1782.91 297.937L1782.91 258.342M1782.91 297.937L1817.1 317.742M1782.91 258.342L1748.56 238.553M1782.91 258.342L1817.1 238.553M1817.1 317.742L1851.46 297.937M1817.1 317.742L1817.1 357.337M1851.46 297.937L1851.46 258.342M1851.46 297.937L1885.81 317.742M1851.46 258.342L1817.1 238.553M1851.46 258.342L1885.81 238.553M1885.81 317.742L1920 297.937L1920 258.342L1885.81 238.553M1885.81 317.742L1885.81 357.337M34.2724 436.51L-1.27883e-05 416.721L-1.10575e-05 377.126L34.2725 357.337M34.2724 436.51L68.5611 416.721M34.2724 436.51L34.2724 476.105M68.5611 416.721L68.5611 377.126M68.5611 416.721L102.85 436.51M68.5611 377.126L34.2725 357.337M68.5611 377.126L102.85 357.337M102.85 436.51L137.138 416.721M102.85 436.51L102.85 476.105M137.138 416.721L137.138 377.126M137.138 416.721L171.427 436.51M137.138 377.126L102.85 357.337M137.138 377.126L171.427 357.337M171.427 436.51L205.715 416.721M171.427 436.51L171.427 476.105M205.715 416.721L205.715 377.126M205.715 416.721L240.004 436.51M205.715 377.126L171.427 357.337M205.715 377.126L240.004 357.337M240.004 436.51L274.277 416.721M240.004 436.51L240.004 476.105M274.277 416.721L274.277 377.126M274.277 416.721L308.565 436.51M274.277 377.126L240.004 357.337M274.277 377.126L308.565 357.337M308.565 436.51L342.854 416.721M308.565 436.51L308.565 476.105M342.854 416.721L342.854 377.126M342.854 416.721L377.142 436.51M342.854 377.126L308.565 357.337M342.854 377.126L377.142 357.337M377.142 436.51L411.431 416.721M377.142 436.51L377.142 476.105M411.431 416.721L411.431 377.126M411.431 416.721L445.72 436.51M411.431 377.126L377.142 357.337M411.431 377.126L445.72 357.337M445.72 436.51L480.008 416.721M445.72 436.51L445.72 476.105M480.008 416.721L480.008 377.126M480.008 416.721L514.281 436.51M480.008 377.126L445.72 357.337M480.008 377.126L514.281 357.337M514.281 436.51L548.569 416.721M514.281 436.51L514.281 476.105M548.569 416.721L548.569 377.126M548.569 416.721L582.858 436.51M548.569 377.126L514.281 357.337M548.569 377.126L582.858 357.337M582.858 436.51L617.146 416.721M582.858 436.51L582.858 476.105M617.146 416.721L617.146 377.126M617.146 416.721L651.435 436.51M617.146 377.126L582.858 357.337M617.146 377.126L651.435 357.337M651.435 436.51L685.724 416.721M651.435 436.51L651.435 476.105M685.724 416.721L685.724 377.126M685.724 416.721L720.012 436.51M685.724 377.126L651.435 357.337M685.724 377.126L720.012 357.337M720.012 436.51L754.285 416.721M720.012 436.51L720.012 476.105M754.285 416.721L754.285 377.126M754.285 416.721L788.573 436.51M754.285 377.126L720.012 357.337M754.285 377.126L788.573 357.337M788.573 436.51L822.862 416.721M788.573 436.51L788.573 476.105M822.862 416.721L822.862 377.126M822.862 416.721L857.15 436.51M822.862 377.126L788.573 357.337M822.862 377.126L857.15 357.337M857.15 436.51L891.439 416.721M857.15 436.51L857.15 476.105M891.439 416.721L891.439 377.126M891.439 416.721L925.728 436.51M891.439 377.126L857.15 357.337M891.439 377.126L925.728 357.337M925.728 436.51L960.016 416.721M925.728 436.51L925.728 476.105M960.016 416.721L960.016 377.126M960.016 416.721L994.289 436.51M960.016 377.126L925.728 357.337M960.016 377.126L994.289 357.337M994.289 436.51L1028.58 416.721M994.289 436.51L994.289 476.105M1028.58 416.721L1028.58 377.126M1028.58 416.721L1062.87 436.51M1028.58 377.126L994.289 357.337M1028.58 377.126L1062.87 357.337M1062.87 436.51L1097.15 416.721M1062.87 436.51L1062.87 476.105M1097.15 416.721L1097.15 377.126M1097.15 416.721L1131.44 436.51M1097.15 377.126L1062.87 357.337M1097.15 377.126L1131.44 357.337M1131.44 436.51L1165.73 416.721M1131.44 436.51L1131.44 476.105M1165.73 416.721L1165.73 377.126M1165.73 416.721L1200.02 436.51M1165.73 377.126L1131.44 357.337M1165.73 377.126L1200.02 357.337M1200.02 436.51L1234.29 416.721M1200.02 436.51L1200.02 476.105M1234.29 416.721L1234.29 377.126M1234.29 416.721L1268.58 436.51M1234.29 377.126L1200.02 357.337M1234.29 377.126L1268.58 357.337M1268.58 436.51L1302.87 416.721M1268.58 436.51L1268.58 476.105M1302.87 416.721L1302.87 377.126M1302.87 416.721L1337.16 436.51M1302.87 377.126L1268.58 357.337M1302.87 377.126L1337.16 357.337M1337.16 436.51L1371.45 416.721M1337.16 436.51L1337.16 476.105M1371.45 416.721L1371.45 377.126M1371.45 416.721L1405.74 436.51M1371.45 377.126L1337.16 357.337M1371.45 377.126L1405.74 357.337M1405.74 436.51L1440.02 416.721M1405.74 436.51L1405.74 476.105M1440.02 416.721L1440.02 377.126M1440.02 416.721L1474.3 436.51M1440.02 377.126L1405.74 357.337M1440.02 377.126L1474.3 357.337M1474.3 436.51L1508.59 416.721M1474.3 436.51L1474.3 476.105M1508.59 416.721L1508.59 377.126M1508.59 416.721L1542.87 436.51M1508.59 377.126L1474.3 357.337M1508.59 377.126L1542.87 357.337M1542.87 436.51L1577.16 416.721M1542.87 436.51L1542.87 476.105M1577.16 416.721L1577.16 377.126M1577.16 416.721L1611.45 436.51M1577.16 377.126L1542.87 357.337M1577.16 377.126L1611.45 357.337M1611.45 436.51L1645.66 416.721M1611.45 436.51L1611.45 476.105M1645.66 416.721L1645.66 377.126M1645.66 416.721L1680.01 436.51M1645.66 377.126L1611.45 357.337M1645.66 377.126L1680.01 357.337M1680.01 436.51L1714.37 416.721M1680.01 436.51L1680.01 476.105M1714.37 416.721L1714.37 377.126M1714.37 416.721L1748.56 436.51M1714.37 377.126L1680.01 357.337M1714.37 377.126L1748.56 357.337M1748.56 436.51L1782.91 416.721M1748.56 436.51L1748.56 476.105M1782.91 416.721L1782.91 377.126M1782.91 416.721L1817.1 436.51M1782.91 377.126L1748.56 357.337M1782.91 377.126L1817.1 357.337M1817.1 436.51L1851.46 416.721M1817.1 436.51L1817.1 476.105M1851.46 416.721L1851.46 377.126M1851.46 416.721L1885.81 436.51M1851.46 377.126L1817.1 357.337M1851.46 377.126L1885.81 357.337M1885.81 436.51L1920 416.721L1920 377.126L1885.81 357.337M1885.81 436.51L1885.81 476.105M34.2724 555.294L-1.79798e-05 535.489L-1.6249e-05 495.894L34.2724 476.105M34.2724 555.294L68.5611 535.489M34.2724 555.294L34.2724 594.873M68.5611 535.489L68.5611 495.894M68.5611 535.489L102.85 555.294M68.5611 495.894L34.2724 476.105M68.5611 495.894L102.85 476.105M102.85 555.294L137.138 535.489M102.85 555.294L102.85 594.873M137.138 535.489L137.138 495.894M137.138 535.489L171.427 555.294M137.138 495.894L102.85 476.105M137.138 495.894L171.427 476.105M171.427 555.294L205.715 535.489M171.427 555.294L171.427 594.873M205.715 535.489L205.715 495.894M205.715 535.489L240.004 555.294M205.715 495.894L171.427 476.105M205.715 495.894L240.004 476.105M240.004 555.294L274.277 535.489M240.004 555.294L240.004 594.873M274.277 535.489L274.277 495.894M274.277 535.489L308.565 555.294M274.277 495.894L240.004 476.105M274.277 495.894L308.565 476.105M308.565 555.294L342.854 535.489M308.565 555.294L308.565 594.873M342.854 535.489L342.854 495.894M342.854 535.489L377.142 555.294M342.854 495.894L308.565 476.105M342.854 495.894L377.142 476.105M377.142 555.294L411.431 535.489M377.142 555.294L377.142 594.873M411.431 535.489L411.431 495.894M411.431 535.489L445.72 555.294M411.431 495.894L377.142 476.105M411.431 495.894L445.72 476.105M445.72 555.294L480.008 535.489M445.72 555.294L445.72 594.873M480.008 535.489L480.008 495.894M480.008 535.489L514.281 555.294M480.008 495.894L445.72 476.105M480.008 495.894L514.281 476.105M514.281 555.294L548.569 535.489M514.281 555.294L514.281 594.873M548.569 535.489L548.569 495.894M548.569 535.489L582.858 555.294M548.569 495.894L514.281 476.105M548.569 495.894L582.858 476.105M582.858 555.294L617.146 535.489M582.858 555.294L582.858 594.873M617.146 535.489L617.146 495.894M617.146 535.489L651.435 555.294M617.146 495.894L582.858 476.105M617.146 495.894L651.435 476.105M651.435 555.294L685.724 535.489M651.435 555.294L651.435 594.873M685.724 535.489L685.724 495.894M685.724 535.489L720.012 555.294M685.724 495.894L651.435 476.105M685.724 495.894L720.012 476.105M720.012 555.294L754.285 535.489M720.012 555.294L720.012 594.873M754.285 535.489L754.285 495.894M754.285 535.489L788.573 555.294M754.285 495.894L720.012 476.105M754.285 495.894L788.573 476.105M788.573 555.294L822.862 535.489M788.573 555.294L788.573 594.873M822.862 535.489L822.862 495.894M822.862 535.489L857.15 555.295M822.862 495.894L788.573 476.105M822.862 495.894L857.15 476.105M857.15 555.295L891.439 535.489M857.15 555.295L857.15 594.873M891.439 535.489L891.439 495.894M891.439 535.489L925.728 555.295M891.439 495.894L857.15 476.105M891.439 495.894L925.728 476.105M925.728 555.295L960.016 535.489M925.728 555.295L925.728 594.873M960.016 535.489L960.016 495.894M960.016 535.489L994.289 555.295M960.016 495.894L925.728 476.105M960.016 495.894L994.289 476.105M994.289 555.295L1028.58 535.489M994.289 555.295L994.289 594.873M1028.58 535.489L1028.58 495.894M1028.58 535.489L1062.87 555.295M1028.58 495.894L994.289 476.105M1028.58 495.894L1062.87 476.105M1062.87 555.295L1097.15 535.489M1062.87 555.295L1062.87 594.873M1097.15 535.489L1097.15 495.894M1097.15 535.489L1131.44 555.295M1097.15 495.894L1062.87 476.105M1097.15 495.894L1131.44 476.105M1131.44 555.295L1165.73 535.489M1131.44 555.295L1131.44 594.873M1165.73 535.489L1165.73 495.894M1165.73 535.489L1200.02 555.295M1165.73 495.894L1131.44 476.105M1165.73 495.894L1200.02 476.105M1200.02 555.295L1234.29 535.489M1200.02 555.295L1200.02 594.873M1234.29 535.489L1234.29 495.894M1234.29 535.489L1268.58 555.295M1234.29 495.894L1200.02 476.105M1234.29 495.894L1268.58 476.105M1268.58 555.295L1302.87 535.489M1268.58 555.295L1268.58 594.873M1302.87 535.489L1302.87 495.894M1302.87 535.489L1337.16 555.295M1302.87 495.894L1268.58 476.105M1302.87 495.894L1337.16 476.105M1337.16 555.295L1371.45 535.489M1337.16 555.295L1337.16 594.873M1371.45 535.489L1371.45 495.894M1371.45 535.489L1405.74 555.295M1371.45 495.894L1337.16 476.105M1371.45 495.894L1405.74 476.105M1405.74 555.295L1440.02 535.489M1405.74 555.295L1405.74 594.873M1440.02 535.489L1440.02 495.894M1440.02 535.489L1474.3 555.295M1440.02 495.894L1405.74 476.105M1440.02 495.894L1474.3 476.105M1474.3 555.295L1508.59 535.489M1474.3 555.295L1474.3 594.873M1508.59 535.489L1508.59 495.894M1508.59 535.489L1542.87 555.295M1508.59 495.894L1474.3 476.105M1508.59 495.894L1542.87 476.105M1542.87 555.295L1577.16 535.489M1542.87 555.295L1542.87 594.873M1577.16 535.489L1577.16 495.894M1577.16 535.489L1611.45 555.295M1577.16 495.894L1542.87 476.105M1577.16 495.894L1611.45 476.105M1611.45 555.295L1645.66 535.489M1611.45 555.295L1611.45 594.873M1645.66 535.489L1645.66 495.894M1645.66 535.489L1680.01 555.295M1645.66 495.894L1611.45 476.105M1645.66 495.894L1680.01 476.105M1680.01 555.295L1714.37 535.489M1680.01 555.295L1680.01 594.873M1714.37 535.489L1714.37 495.894M1714.37 535.489L1748.56 555.295M1714.37 495.894L1680.01 476.105M1714.37 495.894L1748.56 476.105M1748.56 555.295L1782.91 535.489M1748.56 555.295L1748.56 594.873M1782.91 535.489L1782.91 495.894M1782.91 535.489L1817.1 555.295M1782.91 495.894L1748.56 476.105M1782.91 495.894L1817.1 476.105M1817.1 555.295L1851.46 535.489M1817.1 555.295L1817.1 594.873M1851.46 535.489L1851.46 495.894M1851.46 535.489L1885.81 555.295M1851.46 495.894L1817.1 476.105M1851.46 495.894L1885.81 476.105M1885.81 555.295L1920 535.489L1920 495.894L1885.81 476.105M1885.81 555.295L1885.81 594.873M34.2724 674.063L-2.3172e-05 654.273L-2.14413e-05 614.679L34.2724 594.873M34.2724 674.063L68.561 654.273M34.2724 674.063L34.2724 713.657M68.561 654.273L68.561 614.679M68.561 654.273L102.85 674.063M68.561 614.679L34.2724 594.873M68.561 614.679L102.85 594.873M102.85 674.063L137.138 654.273M102.85 674.063L102.85 713.657M137.138 654.273L137.138 614.679M137.138 654.273L171.427 674.063M137.138 614.679L102.85 594.873M137.138 614.679L171.427 594.873M171.427 674.063L205.715 654.273M171.427 674.063L171.427 713.657M205.715 654.273L205.715 614.679M205.715 654.273L240.004 674.063M205.715 614.679L171.427 594.873M205.715 614.679L240.004 594.873M240.004 674.063L274.277 654.273M240.004 674.063L240.004 713.657M274.277 654.273L274.277 614.679M274.277 654.273L308.565 674.063M274.277 614.679L240.004 594.873M274.277 614.679L308.565 594.873M308.565 674.063L342.854 654.273M308.565 674.063L308.565 713.657M342.854 654.273L342.854 614.679M342.854 654.273L377.142 674.063M342.854 614.679L308.565 594.873M342.854 614.679L377.142 594.873M377.142 674.063L411.431 654.273M377.142 674.063L377.142 713.657M411.431 654.273L411.431 614.679M411.431 654.273L445.72 674.063M411.431 614.679L377.142 594.873M411.431 614.679L445.72 594.873M445.72 674.063L480.008 654.273M445.72 674.063L445.72 713.657M480.008 654.273L480.008 614.679M480.008 654.273L514.281 674.063M480.008 614.679L445.72 594.873M480.008 614.679L514.281 594.873M514.281 674.063L548.569 654.273M514.281 674.063L514.281 713.657M548.569 654.273L548.569 614.679M548.569 654.273L582.858 674.063M548.569 614.679L514.281 594.873M548.569 614.679L582.858 594.873M582.858 674.063L617.146 654.273M582.858 674.063L582.858 713.657M617.146 654.273L617.146 614.679M617.146 654.273L651.435 674.063M617.146 614.679L582.858 594.873M617.146 614.679L651.435 594.873M651.435 674.063L685.724 654.273M651.435 674.063L651.435 713.657M685.724 654.273L685.724 614.679M685.724 654.273L720.012 674.063M685.724 614.679L651.435 594.873M685.724 614.679L720.012 594.873M720.012 674.063L754.285 654.273M720.012 674.063L720.012 713.657M754.285 654.273L754.285 614.679M754.285 654.273L788.573 674.063M754.285 614.679L720.012 594.873M754.285 614.679L788.573 594.873M788.573 674.063L822.862 654.273M788.573 674.063L788.573 713.657M822.862 654.273L822.862 614.679M822.862 654.273L857.15 674.063M822.862 614.679L788.573 594.873M822.862 614.679L857.15 594.873M857.15 674.063L891.439 654.273M857.15 674.063L857.15 713.657M891.439 654.273L891.439 614.679M891.439 654.273L925.728 674.063M891.439 614.679L857.15 594.873M891.439 614.679L925.728 594.873M925.728 674.063L960.016 654.273M925.728 674.063L925.728 713.657M960.016 654.273L960.016 614.679M960.016 654.273L994.289 674.063M960.016 614.679L925.728 594.873M960.016 614.679L994.289 594.873M994.289 674.063L1028.58 654.273M994.289 674.063L994.289 713.657M1028.58 654.273L1028.58 614.679M1028.58 654.273L1062.87 674.063M1028.58 614.679L994.289 594.873M1028.58 614.679L1062.87 594.873M1062.87 674.063L1097.15 654.273M1062.87 674.063L1062.87 713.657M1097.15 654.273L1097.15 614.679M1097.15 654.273L1131.44 674.063M1097.15 614.679L1062.87 594.873M1097.15 614.679L1131.44 594.873M1131.44 674.063L1165.73 654.273M1131.44 674.063L1131.44 713.657M1165.73 654.273L1165.73 614.679M1165.73 654.273L1200.02 674.063M1165.73 614.679L1131.44 594.873M1165.73 614.679L1200.02 594.873M1200.02 674.063L1234.29 654.273M1200.02 674.063L1200.02 713.657M1234.29 654.273L1234.29 614.679M1234.29 654.273L1268.58 674.063M1234.29 614.679L1200.02 594.873M1234.29 614.679L1268.58 594.873M1268.58 674.063L1302.87 654.273M1268.58 674.063L1268.58 713.657M1302.87 654.273L1302.87 614.679M1302.87 654.273L1337.16 674.063M1302.87 614.679L1268.58 594.873M1302.87 614.679L1337.16 594.873M1337.16 674.063L1371.45 654.273M1337.16 674.063L1337.16 713.657M1371.45 654.273L1371.45 614.679M1371.45 654.273L1405.74 674.063M1371.45 614.679L1337.16 594.873M1371.45 614.679L1405.74 594.873M1405.74 674.063L1440.02 654.273M1405.74 674.063L1405.74 713.657M1440.02 654.273L1440.02 614.679M1440.02 654.273L1474.3 674.063M1440.02 614.679L1405.74 594.873M1440.02 614.679L1474.3 594.873M1474.3 674.063L1508.59 654.273M1474.3 674.063L1474.3 713.657M1508.59 654.273L1508.59 614.679M1508.59 654.273L1542.87 674.063M1508.59 614.679L1474.3 594.873M1508.59 614.679L1542.87 594.873M1542.87 674.063L1577.16 654.273M1542.87 674.063L1542.87 713.657M1577.16 654.273L1577.16 614.679M1577.16 654.273L1611.45 674.063M1577.16 614.679L1542.87 594.873M1577.16 614.679L1611.45 594.873M1611.45 674.063L1645.66 654.273M1611.45 674.063L1611.45 713.658M1645.66 654.273L1645.66 614.679M1645.66 654.273L1680.01 674.063M1645.66 614.679L1611.45 594.873M1645.66 614.679L1680.01 594.873M1680.01 674.063L1714.37 654.273M1680.01 674.063L1680.01 713.658M1714.37 654.273L1714.37 614.679M1714.37 654.273L1748.56 674.063M1714.37 614.679L1680.01 594.873M1714.37 614.679L1748.56 594.873M1748.56 674.063L1782.91 654.273M1748.56 674.063L1748.56 713.658M1782.91 654.273L1782.91 614.679M1782.91 654.273L1817.1 674.063M1782.91 614.679L1748.56 594.873M1782.91 614.679L1817.1 594.873M1817.1 674.063L1851.46 654.273M1817.1 674.063L1817.1 713.658M1851.46 654.273L1851.46 614.679M1851.46 654.273L1885.81 674.063M1851.46 614.679L1817.1 594.873M1851.46 614.679L1885.81 594.873M1885.81 674.063L1920 654.273L1920 614.679L1885.81 594.873M1885.81 674.063L1885.81 713.658M34.2724 792.831L-2.83635e-05 773.042L-2.66328e-05 733.447L34.2724 713.657M34.2724 792.831L68.561 773.042M34.2724 792.831L34.2724 832.426M68.561 773.042L68.561 733.447M68.561 773.042L102.85 792.831M68.561 733.447L34.2724 713.657M68.561 733.447L102.85 713.657M102.85 792.831L137.138 773.042M102.85 792.831L102.85 832.426M137.138 773.042L137.138 733.447M137.138 773.042L171.427 792.831M137.138 733.447L102.85 713.657M137.138 733.447L171.427 713.657M171.427 792.831L205.715 773.042M171.427 792.831L171.427 832.426M205.715 773.042L205.715 733.447M205.715 773.042L240.004 792.831M205.715 733.447L171.427 713.657M205.715 733.447L240.004 713.657M240.004 792.831L274.277 773.042M240.004 792.831L240.004 832.426M274.277 773.042L274.277 733.447M274.277 773.042L308.565 792.831M274.277 733.447L240.004 713.657M274.277 733.447L308.565 713.657M308.565 792.831L342.854 773.042M308.565 792.831L308.565 832.426M342.854 773.042L342.854 733.447M342.854 773.042L377.142 792.831M342.854 733.447L308.565 713.657M342.854 733.447L377.142 713.657M377.142 792.831L411.431 773.042M377.142 792.831L377.142 832.426M411.431 773.042L411.431 733.447M411.431 773.042L445.72 792.831M411.431 733.447L377.142 713.657M411.431 733.447L445.72 713.657M445.72 792.831L480.008 773.042M445.72 792.831L445.72 832.426M480.008 773.042L480.008 733.447M480.008 773.042L514.281 792.831M480.008 733.447L445.72 713.657M480.008 733.447L514.281 713.657M514.281 792.831L548.569 773.042M514.281 792.831L514.281 832.426M548.569 773.042L548.569 733.447M548.569 773.042L582.858 792.831M548.569 733.447L514.281 713.657M548.569 733.447L582.858 713.657M582.858 792.831L617.146 773.042M582.858 792.831L582.858 832.426M617.146 773.042L617.146 733.447M617.146 773.042L651.435 792.831M617.146 733.447L582.858 713.657M617.146 733.447L651.435 713.657M651.435 792.831L685.724 773.042M651.435 792.831L651.435 832.426M685.724 773.042L685.724 733.447M685.724 773.042L720.012 792.831M685.724 733.447L651.435 713.657M685.724 733.447L720.012 713.657M720.012 792.831L754.285 773.042M720.012 792.831L720.012 832.426M754.285 773.042L754.285 733.447M754.285 773.042L788.573 792.831M754.285 733.447L720.012 713.657M754.285 733.447L788.573 713.657M788.573 792.831L822.862 773.042M788.573 792.831L788.573 832.426M822.862 773.042L822.862 733.447M822.862 773.042L857.15 792.831M822.862 733.447L788.573 713.657M822.862 733.447L857.15 713.657M857.15 792.831L891.439 773.042M857.15 792.831L857.15 832.426M891.439 773.042L891.439 733.447M891.439 773.042L925.728 792.831M891.439 733.447L857.15 713.657M891.439 733.447L925.728 713.657M925.728 792.831L960.016 773.042M925.728 792.831L925.728 832.426M960.016 773.042L960.016 733.447M960.016 773.042L994.289 792.831M960.016 733.447L925.728 713.657M960.016 733.447L994.289 713.657M994.289 792.831L1028.58 773.042M994.289 792.831L994.289 832.426M1028.58 773.042L1028.58 733.447M1028.58 773.042L1062.87 792.831M1028.58 733.447L994.289 713.657M1028.58 733.447L1062.87 713.657M1062.87 792.831L1097.15 773.042M1062.87 792.831L1062.87 832.426M1097.15 773.042L1097.15 733.447M1097.15 773.042L1131.44 792.831M1097.15 733.447L1062.87 713.657M1097.15 733.447L1131.44 713.657M1131.44 792.831L1165.73 773.042M1131.44 792.831L1131.44 832.426M1165.73 773.042L1165.73 733.447M1165.73 773.042L1200.02 792.831M1165.73 733.447L1131.44 713.657M1165.73 733.447L1200.02 713.657M1200.02 792.831L1234.29 773.042M1200.02 792.831L1200.02 832.426M1234.29 773.042L1234.29 733.447M1234.29 773.042L1268.58 792.831M1234.29 733.447L1200.02 713.657M1234.29 733.447L1268.58 713.657M1268.58 792.831L1302.87 773.042M1268.58 792.831L1268.58 832.426M1302.87 773.042L1302.87 733.447M1302.87 773.042L1337.16 792.831M1302.87 733.447L1268.58 713.657M1302.87 733.447L1337.16 713.657M1337.16 792.831L1371.45 773.042M1337.16 792.831L1337.16 832.426M1371.45 773.042L1371.45 733.447M1371.45 773.042L1405.74 792.831M1371.45 733.447L1337.16 713.657M1371.45 733.447L1405.74 713.657M1405.74 792.831L1440.02 773.042M1405.74 792.831L1405.74 832.426M1440.02 773.042L1440.02 733.447M1440.02 773.042L1474.3 792.831M1440.02 733.447L1405.74 713.657M1440.02 733.447L1474.3 713.657M1474.3 792.831L1508.59 773.042M1474.3 792.831L1474.3 832.426M1508.59 773.042L1508.59 733.447M1508.59 773.042L1542.87 792.831M1508.59 733.447L1474.3 713.657M1508.59 733.447L1542.87 713.657M1542.87 792.831L1577.16 773.042M1542.87 792.831L1542.87 832.426M1577.16 773.042L1577.16 733.447M1577.16 773.042L1611.45 792.831M1577.16 733.447L1542.87 713.657M1577.16 733.447L1611.45 713.658M1611.45 792.831L1645.66 773.042M1611.45 792.831L1611.45 832.426M1645.66 773.042L1645.66 733.447M1645.66 773.042L1680.01 792.831M1645.66 733.447L1611.45 713.658M1645.66 733.447L1680.01 713.658M1680.01 792.831L1714.37 773.042M1680.01 792.831L1680.01 832.426M1714.37 773.042L1714.37 733.447M1714.37 773.042L1748.56 792.831M1714.37 733.447L1680.01 713.658M1714.37 733.447L1748.56 713.658M1748.56 792.831L1782.91 773.042M1748.56 792.831L1748.56 832.426M1782.91 773.042L1782.91 733.447M1782.91 773.042L1817.1 792.831M1782.91 733.447L1748.56 713.658M1782.91 733.447L1817.1 713.658M1817.1 792.831L1851.46 773.042M1817.1 792.831L1817.1 832.426M1851.46 773.042L1851.46 733.447M1851.46 773.042L1885.81 792.831M1851.46 733.447L1817.1 713.658M1851.46 733.447L1885.81 713.658M1885.81 792.831L1920 773.042L1920 733.447L1885.81 713.658M1885.81 792.831L1885.81 832.426M34.2724 911.615L-3.35551e-05 891.81L-3.1825e-05 852.231L34.2724 832.426M34.2724 911.615L68.561 891.81M34.2724 911.615L34.2724 951.21M68.561 891.81L68.561 852.231M68.561 891.81L102.85 911.615M68.561 852.231L34.2724 832.426M68.561 852.231L102.85 832.426M102.85 911.615L137.138 891.81M102.85 911.615L102.85 951.21M137.138 891.81L137.138 852.231M137.138 891.81L171.427 911.615M137.138 852.231L102.85 832.426M137.138 852.231L171.427 832.426M171.427 911.615L205.715 891.81M171.427 911.615L171.427 951.21M205.715 891.81L205.715 852.231M205.715 891.81L240.004 911.615M205.715 852.231L171.427 832.426M205.715 852.231L240.004 832.426M240.004 911.615L274.277 891.81M240.004 911.615L240.004 951.21M274.277 891.81L274.277 852.231M274.277 891.81L308.565 911.615M274.277 852.231L240.004 832.426M274.277 852.231L308.565 832.426M308.565 911.615L342.854 891.81M308.565 911.615L308.565 951.21M342.854 891.81L342.854 852.231M342.854 891.81L377.142 911.615M342.854 852.231L308.565 832.426M342.854 852.231L377.142 832.426M377.142 911.615L411.431 891.81M377.142 911.615L377.142 951.21M411.431 891.81L411.431 852.231M411.431 891.81L445.72 911.615M411.431 852.231L377.142 832.426M411.431 852.231L445.72 832.426M445.72 911.615L480.008 891.81M445.72 911.615L445.72 951.21M480.008 891.81L480.008 852.231M480.008 891.81L514.281 911.615M480.008 852.231L445.72 832.426M480.008 852.231L514.281 832.426M514.281 911.615L548.569 891.81M514.281 911.615L514.281 951.21M548.569 891.81L548.569 852.231M548.569 891.81L582.858 911.615M548.569 852.231L514.281 832.426M548.569 852.231L582.858 832.426M582.858 911.615L617.146 891.81M582.858 911.615L582.858 951.21M617.146 891.81L617.146 852.231M617.146 891.81L651.435 911.615M617.146 852.231L582.858 832.426M617.146 852.231L651.435 832.426M651.435 911.615L685.724 891.81M651.435 911.615L651.435 951.21M685.724 891.81L685.724 852.231M685.724 891.81L720.012 911.615M685.724 852.231L651.435 832.426M685.724 852.231L720.012 832.426M720.012 911.615L754.285 891.81M720.012 911.615L720.012 951.21M754.285 891.81L754.285 852.231M754.285 891.81L788.573 911.615M754.285 852.231L720.012 832.426M754.285 852.231L788.573 832.426M788.573 911.615L822.862 891.81M788.573 911.615L788.573 951.21M822.862 891.81L822.862 852.231M822.862 891.81L857.15 911.615M822.862 852.231L788.573 832.426M822.862 852.231L857.15 832.426M857.15 911.615L891.439 891.81M857.15 911.615L857.15 951.21M891.439 891.81L891.439 852.231M891.439 891.81L925.728 911.615M891.439 852.231L857.15 832.426M891.439 852.231L925.728 832.426M925.728 911.615L960.016 891.81M925.728 911.615L925.728 951.21M960.016 891.81L960.016 852.231M960.016 891.81L994.289 911.615M960.016 852.231L925.728 832.426M960.016 852.231L994.289 832.426M994.289 911.615L1028.58 891.81M994.289 911.615L994.289 951.21M1028.58 891.81L1028.58 852.231M1028.58 891.81L1062.87 911.615M1028.58 852.231L994.289 832.426M1028.58 852.231L1062.87 832.426M1062.87 911.615L1097.15 891.81M1062.87 911.615L1062.87 951.21M1097.15 891.81L1097.15 852.231M1097.15 891.81L1131.44 911.615M1097.15 852.231L1062.87 832.426M1097.15 852.231L1131.44 832.426M1131.44 911.615L1165.73 891.81M1131.44 911.615L1131.44 951.21M1165.73 891.81L1165.73 852.231M1165.73 891.81L1200.02 911.615M1165.73 852.231L1131.44 832.426M1165.73 852.231L1200.02 832.426M1200.02 911.615L1234.29 891.81M1200.02 911.615L1200.02 951.21M1234.29 891.81L1234.29 852.231M1234.29 891.81L1268.58 911.615M1234.29 852.231L1200.02 832.426M1234.29 852.231L1268.58 832.426M1268.58 911.615L1302.87 891.81M1268.58 911.615L1268.58 951.21M1302.87 891.81L1302.87 852.231M1302.87 891.81L1337.16 911.615M1302.87 852.231L1268.58 832.426M1302.87 852.231L1337.16 832.426M1337.16 911.615L1371.45 891.81M1337.16 911.615L1337.16 951.21M1371.45 891.81L1371.45 852.231M1371.45 891.81L1405.74 911.615M1371.45 852.231L1337.16 832.426M1371.45 852.231L1405.74 832.426M1405.74 911.615L1440.02 891.81M1405.74 911.615L1405.74 951.21M1440.02 891.81L1440.02 852.231M1440.02 891.81L1474.3 911.615M1440.02 852.231L1405.74 832.426M1440.02 852.231L1474.3 832.426M1474.3 911.615L1508.59 891.81M1474.3 911.615L1474.3 951.21M1508.59 891.81L1508.59 852.231M1508.59 891.81L1542.87 911.615M1508.59 852.231L1474.3 832.426M1508.59 852.231L1542.87 832.426M1542.87 911.615L1577.16 891.81M1542.87 911.615L1542.87 951.21M1577.16 891.81L1577.16 852.231M1577.16 891.81L1611.45 911.615M1577.16 852.231L1542.87 832.426M1577.16 852.231L1611.45 832.426M1611.45 911.615L1645.66 891.81M1611.45 911.615L1611.45 951.21M1645.66 891.81L1645.66 852.231M1645.66 891.81L1680.01 911.615M1645.66 852.231L1611.45 832.426M1645.66 852.231L1680.01 832.426M1680.01 911.615L1714.37 891.81M1680.01 911.615L1680.01 951.21M1714.37 891.81L1714.37 852.231M1714.37 891.81L1748.56 911.615M1714.37 852.231L1680.01 832.426M1714.37 852.231L1748.56 832.426M1748.56 911.615L1782.91 891.81M1748.56 911.615L1748.56 951.21M1782.91 891.81L1782.91 852.231M1782.91 891.81L1817.1 911.615M1782.91 852.231L1748.56 832.426M1782.91 852.231L1817.1 832.426M1817.1 911.615L1851.46 891.81M1817.1 911.615L1817.1 951.21M1851.46 891.81L1851.46 852.231M1851.46 891.81L1885.81 911.615M1851.46 852.231L1817.1 832.426M1851.46 852.231L1885.81 832.426M1885.81 911.615L1920 891.81L1920 852.231L1885.81 832.426M1885.81 911.615L1885.81 951.21M34.2724 1030.38L-3.87473e-05 1010.59L-3.70165e-05 970.999L34.2724 951.21M34.2724 1030.38L68.561 1010.59M34.2724 1030.38L34.2724 1069.98M68.561 1010.59L68.561 970.999M68.561 1010.59L102.85 1030.38M68.561 970.999L34.2724 951.21M68.561 970.999L102.85 951.21M102.85 1030.38L137.138 1010.59M102.85 1030.38L102.85 1069.98M137.138 1010.59L137.138 970.999M137.138 1010.59L171.427 1030.38M137.138 970.999L102.85 951.21M137.138 970.999L171.427 951.21M171.427 1030.38L205.715 1010.59M171.427 1030.38L171.427 1069.98M205.715 1010.59L205.715 970.999M205.715 1010.59L240.004 1030.38M205.715 970.999L171.427 951.21M205.715 970.999L240.004 951.21M240.004 1030.38L274.277 1010.59M240.004 1030.38L240.004 1069.98M274.277 1010.59L274.277 970.999M274.277 1010.59L308.565 1030.38M274.277 970.999L240.004 951.21M274.277 970.999L308.565 951.21M308.565 1030.38L342.854 1010.59M308.565 1030.38L308.565 1069.98M342.854 1010.59L342.854 970.999M342.854 1010.59L377.142 1030.38M342.854 970.999L308.565 951.21M342.854 970.999L377.142 951.21M377.142 1030.38L411.431 1010.59M377.142 1030.38L377.142 1069.98M411.431 1010.59L411.431 970.999M411.431 1010.59L445.72 1030.38M411.431 970.999L377.142 951.21M411.431 970.999L445.72 951.21M445.72 1030.38L480.008 1010.59M445.72 1030.38L445.72 1069.98M480.008 1010.59L480.008 970.999M480.008 1010.59L514.281 1030.38M480.008 970.999L445.72 951.21M480.008 970.999L514.281 951.21M514.281 1030.38L548.569 1010.59M514.281 1030.38L514.281 1069.98M548.569 1010.59L548.569 970.999M548.569 1010.59L582.858 1030.38M548.569 970.999L514.281 951.21M548.569 970.999L582.858 951.21M582.858 1030.38L617.146 1010.59M582.858 1030.38L582.858 1069.98M617.146 1010.59L617.146 970.999M617.146 1010.59L651.435 1030.38M617.146 970.999L582.858 951.21M617.146 970.999L651.435 951.21M651.435 1030.38L685.724 1010.59M651.435 1030.38L651.435 1069.98M685.724 1010.59L685.724 970.999M685.724 1010.59L720.012 1030.38M685.724 970.999L651.435 951.21M685.724 970.999L720.012 951.21M720.012 1030.38L754.285 1010.59M720.012 1030.38L720.012 1069.98M754.285 1010.59L754.285 970.999M754.285 1010.59L788.573 1030.38M754.285 970.999L720.012 951.21M754.285 970.999L788.573 951.21M788.573 1030.38L822.862 1010.59M788.573 1030.38L788.573 1069.98M822.862 1010.59L822.862 970.999M822.862 1010.59L857.15 1030.38M822.862 970.999L788.573 951.21M822.862 970.999L857.15 951.21M857.15 1030.38L891.439 1010.59M857.15 1030.38L857.15 1069.98M891.439 1010.59L891.439 970.999M891.439 1010.59L925.728 1030.38M891.439 970.999L857.15 951.21M891.439 970.999L925.728 951.21M925.728 1030.38L960.016 1010.59M925.728 1030.38L925.728 1069.98M960.016 1010.59L960.016 970.999M960.016 1010.59L994.289 1030.38M960.016 970.999L925.728 951.21M960.016 970.999L994.289 951.21M994.289 1030.38L1028.58 1010.59M994.289 1030.38L994.289 1069.98M1028.58 1010.59L1028.58 970.999M1028.58 1010.59L1062.87 1030.38M1028.58 970.999L994.289 951.21M1028.58 970.999L1062.87 951.21M1062.87 1030.38L1097.15 1010.59M1062.87 1030.38L1062.87 1069.98M1097.15 1010.59L1097.15 970.999M1097.15 1010.59L1131.44 1030.38M1097.15 970.999L1062.87 951.21M1097.15 970.999L1131.44 951.21M1131.44 1030.38L1165.73 1010.59M1131.44 1030.38L1131.44 1069.98M1165.73 1010.59L1165.73 970.999M1165.73 1010.59L1200.02 1030.38M1165.73 970.999L1131.44 951.21M1165.73 970.999L1200.02 951.21M1200.02 1030.38L1234.29 1010.59M1200.02 1030.38L1200.02 1069.98M1234.29 1010.59L1234.29 970.999M1234.29 1010.59L1268.58 1030.38M1234.29 970.999L1200.02 951.21M1234.29 970.999L1268.58 951.21M1268.58 1030.38L1302.87 1010.59M1268.58 1030.38L1268.58 1069.98M1302.87 1010.59L1302.87 970.999M1302.87 1010.59L1337.16 1030.38M1302.87 970.999L1268.58 951.21M1302.87 970.999L1337.16 951.21M1337.16 1030.38L1371.45 1010.59M1337.16 1030.38L1337.16 1069.98M1371.45 1010.59L1371.45 970.999M1371.45 1010.59L1405.74 1030.38M1371.45 970.999L1337.16 951.21M1371.45 970.999L1405.74 951.21M1405.74 1030.38L1440.02 1010.59M1405.74 1030.38L1405.74 1069.98M1440.02 1010.59L1440.02 970.999M1440.02 1010.59L1474.3 1030.38M1440.02 970.999L1405.74 951.21M1440.02 970.999L1474.3 951.21M1474.3 1030.38L1508.59 1010.59M1474.3 1030.38L1474.3 1069.98M1508.59 1010.59L1508.59 970.999M1508.59 1010.59L1542.87 1030.38M1508.59 970.999L1474.3 951.21M1508.59 970.999L1542.87 951.21M1542.87 1030.38L1577.16 1010.59M1542.87 1030.38L1542.87 1069.98M1577.16 1010.59L1577.16 970.999M1577.16 1010.59L1611.45 1030.38M1577.16 970.999L1542.87 951.21M1577.16 970.999L1611.45 951.21M1611.45 1030.38L1645.66 1010.59M1611.45 1030.38L1611.45 1069.98M1645.66 1010.59L1645.66 970.999M1645.66 1010.59L1680.01 1030.38M1645.66 970.999L1611.45 951.21M1645.66 970.999L1680.01 951.21M1680.01 1030.38L1714.37 1010.59M1680.01 1030.38L1680.01 1069.98M1714.37 1010.59L1714.37 970.999M1714.37 1010.59L1748.56 1030.38M1714.37 970.999L1680.01 951.21M1714.37 970.999L1748.56 951.21M1748.56 1030.38L1782.91 1010.59M1748.56 1030.38L1748.56 1069.98M1782.91 1010.59L1782.91 970.999M1782.91 1010.59L1817.1 1030.38M1782.91 970.999L1748.56 951.21M1782.91 970.999L1817.1 951.21M1817.1 1030.38L1851.46 1010.59M1817.1 1030.38L1817.1 1069.98M1851.46 1010.59L1851.46 970.999M1851.46 1010.59L1885.81 1030.38M1851.46 970.999L1817.1 951.21M1851.46 970.999L1885.81 951.21M1885.81 1030.38L1920 1010.59L1920 970.999L1885.81 951.21M1885.81 1030.38L1885.81 1069.98M34.2724 1149.17L-4.39388e-05 1129.36L-4.22081e-05 1089.77L34.2724 1069.98M34.2724 1149.17L68.561 1129.36M34.2724 1149.17L34.2724 1188.75M68.561 1129.36L68.561 1089.77M68.561 1129.36L102.85 1149.17M68.561 1089.77L34.2724 1069.98M68.561 1089.77L102.85 1069.98M102.85 1149.17L137.138 1129.36M102.85 1149.17L102.85 1188.75M137.138 1129.36L137.138 1089.77M137.138 1129.36L171.427 1149.17M137.138 1089.77L102.85 1069.98M137.138 1089.77L171.427 1069.98M171.427 1149.17L205.715 1129.36M171.427 1149.17L171.427 1188.75M205.715 1129.36L205.715 1089.77M205.715 1129.36L240.004 1149.17M205.715 1089.77L171.427 1069.98M205.715 1089.77L240.004 1069.98M240.004 1149.17L274.277 1129.36M240.004 1149.17L240.004 1188.75M274.277 1129.36L274.277 1089.77M274.277 1129.36L308.565 1149.17M274.277 1089.77L240.004 1069.98M274.277 1089.77L308.565 1069.98M308.565 1149.17L342.854 1129.36M308.565 1149.17L308.565 1188.75M342.854 1129.36L342.854 1089.77M342.854 1129.36L377.142 1149.17M342.854 1089.77L308.565 1069.98M342.854 1089.77L377.142 1069.98M377.142 1149.17L411.431 1129.36M377.142 1149.17L377.142 1188.75M411.431 1129.36L411.431 1089.77M411.431 1129.36L445.72 1149.17M411.431 1089.77L377.142 1069.98M411.431 1089.77L445.72 1069.98M445.72 1149.17L480.008 1129.36M445.72 1149.17L445.72 1188.75M480.008 1129.36L480.008 1089.77M480.008 1129.36L514.281 1149.17M480.008 1089.77L445.72 1069.98M480.008 1089.77L514.281 1069.98M514.281 1149.17L548.569 1129.36M514.281 1149.17L514.281 1188.75M548.569 1129.36L548.569 1089.77M548.569 1129.36L582.858 1149.17M548.569 1089.77L514.281 1069.98M548.569 1089.77L582.858 1069.98M582.858 1149.17L617.146 1129.36M582.858 1149.17L582.858 1188.75M617.146 1129.36L617.146 1089.77M617.146 1129.36L651.435 1149.17M617.146 1089.77L582.858 1069.98M617.146 1089.77L651.435 1069.98M651.435 1149.17L685.724 1129.36M651.435 1149.17L651.435 1188.75M685.724 1129.36L685.724 1089.77M685.724 1129.36L720.012 1149.17M685.724 1089.77L651.435 1069.98M685.724 1089.77L720.012 1069.98M720.012 1149.17L754.285 1129.36M720.012 1149.17L720.012 1188.75M754.285 1129.36L754.285 1089.77M754.285 1129.36L788.573 1149.17M754.285 1089.77L720.012 1069.98M754.285 1089.77L788.573 1069.98M788.573 1149.17L822.862 1129.36M788.573 1149.17L788.573 1188.75M822.862 1129.36L822.862 1089.77M822.862 1129.36L857.15 1149.17M822.862 1089.77L788.573 1069.98M822.862 1089.77L857.15 1069.98M857.15 1149.17L891.439 1129.36M857.15 1149.17L857.15 1188.75M891.439 1129.36L891.439 1089.77M891.439 1129.36L925.728 1149.17M891.439 1089.77L857.15 1069.98M891.439 1089.77L925.728 1069.98M925.728 1149.17L960.016 1129.36M925.728 1149.17L925.728 1188.75M960.016 1129.36L960.016 1089.77M960.016 1129.36L994.289 1149.17M960.016 1089.77L925.728 1069.98M960.016 1089.77L994.289 1069.98M994.289 1149.17L1028.58 1129.36M994.289 1149.17L994.289 1188.75M1028.58 1129.36L1028.58 1089.77M1028.58 1129.36L1062.87 1149.17M1028.58 1089.77L994.289 1069.98M1028.58 1089.77L1062.87 1069.98M1062.87 1149.17L1097.15 1129.36M1062.87 1149.17L1062.87 1188.75M1097.15 1129.36L1097.15 1089.77M1097.15 1129.36L1131.44 1149.17M1097.15 1089.77L1062.87 1069.98M1097.15 1089.77L1131.44 1069.98M1131.44 1149.17L1165.73 1129.36M1131.44 1149.17L1131.44 1188.75M1165.73 1129.36L1165.73 1089.77M1165.73 1129.36L1200.02 1149.17M1165.73 1089.77L1131.44 1069.98M1165.73 1089.77L1200.02 1069.98M1200.02 1149.17L1234.29 1129.36M1200.02 1149.17L1200.02 1188.75M1234.29 1129.36L1234.29 1089.77M1234.29 1129.36L1268.58 1149.17M1234.29 1089.77L1200.02 1069.98M1234.29 1089.77L1268.58 1069.98M1268.58 1149.17L1302.87 1129.36M1268.58 1149.17L1268.58 1188.75M1302.87 1129.36L1302.87 1089.77M1302.87 1129.36L1337.16 1149.17M1302.87 1089.77L1268.58 1069.98M1302.87 1089.77L1337.16 1069.98M1337.16 1149.17L1371.45 1129.36M1337.16 1149.17L1337.16 1188.75M1371.45 1129.36L1371.45 1089.77M1371.45 1129.36L1405.74 1149.17M1371.45 1089.77L1337.16 1069.98M1371.45 1089.77L1405.74 1069.98M1405.74 1149.17L1440.02 1129.36M1405.74 1149.17L1405.74 1188.75M1440.02 1129.36L1440.02 1089.77M1440.02 1129.36L1474.3 1149.17M1440.02 1089.77L1405.74 1069.98M1440.02 1089.77L1474.3 1069.98M1474.3 1149.17L1508.59 1129.36M1474.3 1149.17L1474.3 1188.75M1508.59 1129.36L1508.59 1089.77M1508.59 1129.36L1542.87 1149.17M1508.59 1089.77L1474.3 1069.98M1508.59 1089.77L1542.87 1069.98M1542.87 1149.17L1577.16 1129.36M1542.87 1149.17L1542.87 1188.75M1577.16 1129.36L1577.16 1089.77M1577.16 1129.36L1611.45 1149.17M1577.16 1089.77L1542.87 1069.98M1577.16 1089.77L1611.45 1069.98M1611.45 1149.17L1645.66 1129.36M1611.45 1149.17L1611.45 1188.75M1645.66 1129.36L1645.66 1089.77M1645.66 1129.36L1680.01 1149.17M1645.66 1089.77L1611.45 1069.98M1645.66 1089.77L1680.01 1069.98M1680.01 1149.17L1714.37 1129.36M1680.01 1149.17L1680.01 1188.75M1714.37 1129.36L1714.37 1089.77M1714.37 1129.36L1748.56 1149.17M1714.37 1089.77L1680.01 1069.98M1714.37 1089.77L1748.56 1069.98M1748.56 1149.17L1782.91 1129.36M1748.56 1149.17L1748.56 1188.75M1782.91 1129.36L1782.91 1089.77M1782.91 1129.36L1817.1 1149.17M1782.91 1089.77L1748.56 1069.98M1782.91 1089.77L1817.1 1069.98M1817.1 1149.17L1851.46 1129.36M1817.1 1149.17L1817.1 1188.75M1851.46 1129.36L1851.46 1089.77M1851.46 1129.36L1885.81 1149.17M1851.46 1089.77L1817.1 1069.98M1851.46 1089.77L1885.81 1069.98M1885.81 1149.17L1920 1129.36L1920 1089.77L1885.81 1069.98M1885.81 1149.17L1885.81 1188.75M34.2724 1267.94L-4.9131e-05 1248.15L-4.74003e-05 1208.55L34.2724 1188.75M34.2724 1267.94L68.561 1248.15M34.2724 1267.94L34.2724 1307.53M68.561 1248.15L68.561 1208.55M68.561 1248.15L102.85 1267.94M68.561 1208.55L34.2724 1188.75M68.561 1208.55L102.85 1188.75M102.85 1267.94L137.138 1248.15M102.85 1267.94L102.85 1307.53M137.138 1248.15L137.138 1208.55M137.138 1248.15L171.427 1267.94M137.138 1208.55L102.85 1188.75M137.138 1208.55L171.427 1188.75M171.427 1267.94L205.715 1248.15M171.427 1267.94L171.427 1307.53M205.715 1248.15L205.715 1208.55M205.715 1248.15L240.004 1267.94M205.715 1208.55L171.427 1188.75M205.715 1208.55L240.004 1188.75M240.004 1267.94L274.277 1248.15M240.004 1267.94L240.004 1307.53M274.277 1248.15L274.277 1208.55M274.277 1248.15L308.565 1267.94M274.277 1208.55L240.004 1188.75M274.277 1208.55L308.565 1188.75M308.565 1267.94L342.854 1248.15M308.565 1267.94L308.565 1307.53M342.854 1248.15L342.854 1208.55M342.854 1248.15L377.142 1267.94M342.854 1208.55L308.565 1188.75M342.854 1208.55L377.142 1188.75M377.142 1267.94L411.431 1248.15M377.142 1267.94L377.142 1307.53M411.431 1248.15L411.431 1208.55M411.431 1248.15L445.72 1267.94M411.431 1208.55L377.142 1188.75M411.431 1208.55L445.72 1188.75M445.72 1267.94L480.008 1248.15M445.72 1267.94L445.72 1307.53M480.008 1248.15L480.008 1208.55M480.008 1248.15L514.281 1267.94M480.008 1208.55L445.72 1188.75M480.008 1208.55L514.281 1188.75M514.281 1267.94L548.569 1248.15M514.281 1267.94L514.281 1307.53M548.569 1248.15L548.569 1208.55M548.569 1248.15L582.858 1267.94M548.569 1208.55L514.281 1188.75M548.569 1208.55L582.858 1188.75M582.858 1267.94L617.146 1248.15M582.858 1267.94L582.858 1307.53M617.146 1248.15L617.146 1208.55M617.146 1248.15L651.435 1267.94M617.146 1208.55L582.858 1188.75M617.146 1208.55L651.435 1188.75M651.435 1267.94L685.724 1248.15M651.435 1267.94L651.435 1307.53M685.724 1248.15L685.724 1208.55M685.724 1248.15L720.012 1267.94M685.724 1208.55L651.435 1188.75M685.724 1208.55L720.012 1188.75M720.012 1267.94L754.285 1248.15M720.012 1267.94L720.012 1307.53M754.285 1248.15L754.285 1208.55M754.285 1248.15L788.573 1267.94M754.285 1208.55L720.012 1188.75M754.285 1208.55L788.573 1188.75M788.573 1267.94L822.862 1248.15M788.573 1267.94L788.573 1307.53M822.862 1248.15L822.862 1208.55M822.862 1248.15L857.15 1267.94M822.862 1208.55L788.573 1188.75M822.862 1208.55L857.15 1188.75M857.15 1267.94L891.439 1248.15M857.15 1267.94L857.15 1307.53M891.439 1248.15L891.439 1208.55M891.439 1248.15L925.728 1267.94M891.439 1208.55L857.15 1188.75M891.439 1208.55L925.728 1188.75M925.728 1267.94L960.016 1248.15M925.728 1267.94L925.728 1307.53M960.016 1248.15L960.016 1208.55M960.016 1248.15L994.289 1267.94M960.016 1208.55L925.728 1188.75M960.016 1208.55L994.289 1188.75M994.289 1267.94L1028.58 1248.15M994.289 1267.94L994.289 1307.53M1028.58 1248.15L1028.58 1208.55M1028.58 1248.15L1062.87 1267.94M1028.58 1208.55L994.289 1188.75M1028.58 1208.55L1062.87 1188.75M1062.87 1267.94L1097.15 1248.15M1062.87 1267.94L1062.87 1307.53M1097.15 1248.15L1097.15 1208.55M1097.15 1248.15L1131.44 1267.94M1097.15 1208.55L1062.87 1188.75M1097.15 1208.55L1131.44 1188.75M1131.44 1267.94L1165.73 1248.15M1131.44 1267.94L1131.44 1307.53M1165.73 1248.15L1165.73 1208.55M1165.73 1248.15L1200.02 1267.94M1165.73 1208.55L1131.44 1188.75M1165.73 1208.55L1200.02 1188.75M1200.02 1267.94L1234.29 1248.15M1200.02 1267.94L1200.02 1307.53M1234.29 1248.15L1234.29 1208.55M1234.29 1248.15L1268.58 1267.94M1234.29 1208.55L1200.02 1188.75M1234.29 1208.55L1268.58 1188.75M1268.58 1267.94L1302.87 1248.15M1268.58 1267.94L1268.58 1307.53M1302.87 1248.15L1302.87 1208.55M1302.87 1248.15L1337.16 1267.94M1302.87 1208.55L1268.58 1188.75M1302.87 1208.55L1337.16 1188.75M1337.16 1267.94L1371.45 1248.15M1337.16 1267.94L1337.16 1307.53M1371.45 1248.15L1371.45 1208.55M1371.45 1248.15L1405.74 1267.94M1371.45 1208.55L1337.16 1188.75M1371.45 1208.55L1405.74 1188.75M1405.74 1267.94L1440.02 1248.15M1405.74 1267.94L1405.74 1307.53M1440.02 1248.15L1440.02 1208.55M1440.02 1248.15L1474.3 1267.94M1440.02 1208.55L1405.74 1188.75M1440.02 1208.55L1474.3 1188.75M1474.3 1267.94L1508.59 1248.15M1474.3 1267.94L1474.3 1307.53M1508.59 1248.15L1508.59 1208.55M1508.59 1248.15L1542.87 1267.94M1508.59 1208.55L1474.3 1188.75M1508.59 1208.55L1542.87 1188.75M1542.87 1267.94L1577.16 1248.15M1542.87 1267.94L1542.87 1307.53M1577.16 1248.15L1577.16 1208.55M1577.16 1248.15L1611.45 1267.94M1577.16 1208.55L1542.87 1188.75M1577.16 1208.55L1611.45 1188.75M1611.45 1267.94L1645.66 1248.15M1611.45 1267.94L1611.45 1307.53M1645.66 1248.15L1645.66 1208.55M1645.66 1248.15L1680.01 1267.94M1645.66 1208.55L1611.45 1188.75M1645.66 1208.55L1680.01 1188.75M1680.01 1267.94L1714.37 1248.15M1680.01 1267.94L1680.01 1307.53M1714.37 1248.15L1714.37 1208.55M1714.37 1248.15L1748.56 1267.94M1714.37 1208.55L1680.01 1188.75M1714.37 1208.55L1748.56 1188.75M1748.56 1267.94L1782.91 1248.15M1748.56 1267.94L1748.56 1307.53M1782.91 1248.15L1782.91 1208.55M1782.91 1248.15L1817.1 1267.94M1782.91 1208.55L1748.56 1188.75M1782.91 1208.55L1817.1 1188.75M1817.1 1267.94L1851.46 1248.15M1817.1 1267.94L1817.1 1307.53M1851.46 1248.15L1851.46 1208.55M1851.46 1248.15L1885.81 1267.94M1851.46 1208.55L1817.1 1188.75M1851.46 1208.55L1885.81 1188.75M1885.81 1267.94L1920 1248.15L1920 1208.55L1885.81 1188.75M1885.81 1267.94L1885.81 1307.53M68.561 1366.91L34.2724 1386.7L-5.43226e-05 1366.91L-5.25918e-05 1327.32L34.2724 1307.53M68.561 1366.91L68.561 1327.32M68.561 1366.91L102.85 1386.7L137.138 1366.91M68.561 1327.32L34.2724 1307.53M68.561 1327.32L102.85 1307.53M137.138 1366.91L137.138 1327.32M137.138 1366.91L171.427 1386.7L205.715 1366.91M137.138 1327.32L102.85 1307.53M137.138 1327.32L171.427 1307.53M205.715 1366.91L205.715 1327.32M205.715 1366.91L240.004 1386.7L274.277 1366.91M205.715 1327.32L171.427 1307.53M205.715 1327.32L240.004 1307.53M274.277 1366.91L274.277 1327.32M274.277 1366.91L308.565 1386.7L342.854 1366.91M274.277 1327.32L240.004 1307.53M274.277 1327.32L308.565 1307.53M342.854 1366.91L342.854 1327.32M342.854 1366.91L377.142 1386.7L411.431 1366.91M342.854 1327.32L308.565 1307.53M342.854 1327.32L377.142 1307.53M411.431 1366.91L411.431 1327.32M411.431 1366.91L445.72 1386.7L480.008 1366.91M411.431 1327.32L377.142 1307.53M411.431 1327.32L445.72 1307.53M480.008 1366.91L480.008 1327.32M480.008 1366.91L514.281 1386.7L548.569 1366.91M480.008 1327.32L445.72 1307.53M480.008 1327.32L514.281 1307.53M548.569 1366.91L548.569 1327.32M548.569 1366.91L582.858 1386.7L617.146 1366.91M548.569 1327.32L514.281 1307.53M548.569 1327.32L582.858 1307.53M617.146 1366.91L617.146 1327.32M617.146 1366.91L651.435 1386.7L685.724 1366.91M617.146 1327.32L582.858 1307.53M617.146 1327.32L651.435 1307.53M685.724 1366.91L685.724 1327.32M685.724 1366.91L720.012 1386.7L754.285 1366.91M685.724 1327.32L651.435 1307.53M685.724 1327.32L720.012 1307.53M754.285 1366.91L754.285 1327.32M754.285 1366.91L788.573 1386.7L822.862 1366.91M754.285 1327.32L720.012 1307.53M754.285 1327.32L788.573 1307.53M822.862 1366.91L822.862 1327.32M822.862 1366.91L857.15 1386.7L891.439 1366.91M822.862 1327.32L788.573 1307.53M822.862 1327.32L857.15 1307.53M891.439 1366.91L891.439 1327.32M891.439 1366.91L925.728 1386.7L960.016 1366.91M891.439 1327.32L857.15 1307.53M891.439 1327.32L925.728 1307.53M960.016 1366.91L960.016 1327.32M960.016 1366.91L994.289 1386.7L1028.58 1366.91M960.016 1327.32L925.728 1307.53M960.016 1327.32L994.289 1307.53M1028.58 1366.91L1028.58 1327.32M1028.58 1366.91L1062.87 1386.7L1097.15 1366.91M1028.58 1327.32L994.289 1307.53M1028.58 1327.32L1062.87 1307.53M1097.15 1366.91L1097.15 1327.32M1097.15 1366.91L1131.44 1386.7L1165.73 1366.91M1097.15 1327.32L1062.87 1307.53M1097.15 1327.32L1131.44 1307.53M1165.73 1366.91L1165.73 1327.32M1165.73 1366.91L1200.02 1386.7L1234.29 1366.91M1165.73 1327.32L1131.44 1307.53M1165.73 1327.32L1200.02 1307.53M1234.29 1366.91L1234.29 1327.32M1234.29 1366.91L1268.58 1386.7L1302.87 1366.91M1234.29 1327.32L1200.02 1307.53M1234.29 1327.32L1268.58 1307.53M1302.87 1366.91L1302.87 1327.32M1302.87 1366.91L1337.16 1386.7L1371.45 1366.91M1302.87 1327.32L1268.58 1307.53M1302.87 1327.32L1337.16 1307.53M1371.45 1366.91L1371.45 1327.32M1371.45 1366.91L1405.74 1386.7L1440.02 1366.91M1371.45 1327.32L1337.16 1307.53M1371.45 1327.32L1405.74 1307.53M1440.02 1366.91L1440.02 1327.32M1440.02 1366.91L1474.3 1386.7L1508.59 1366.91M1440.02 1327.32L1405.74 1307.53M1440.02 1327.32L1474.3 1307.53M1508.59 1366.91L1508.59 1327.32M1508.59 1366.91L1542.87 1386.7L1577.16 1366.91M1508.59 1327.32L1474.3 1307.53M1508.59 1327.32L1542.87 1307.53M1577.16 1366.91L1577.16 1327.32M1577.16 1366.91L1611.45 1386.7L1645.66 1366.91M1577.16 1327.32L1542.87 1307.53M1577.16 1327.32L1611.45 1307.53M1645.66 1366.91L1645.66 1327.32M1645.66 1366.91L1680.01 1386.7L1714.37 1366.91M1645.66 1327.32L1611.45 1307.53M1645.66 1327.32L1680.01 1307.53M1714.37 1366.91L1714.37 1327.32M1714.37 1366.91L1748.56 1386.7L1782.91 1366.91M1714.37 1327.32L1680.01 1307.53M1714.37 1327.32L1748.56 1307.53M1782.91 1366.91L1782.91 1327.32M1782.91 1366.91L1817.1 1386.7L1851.46 1366.91M1782.91 1327.32L1748.56 1307.53M1782.91 1327.32L1817.1 1307.53M1851.46 1366.91L1851.46 1327.32M1851.46 1366.91L1885.81 1386.7L1920 1366.91L1920 1327.32L1885.81 1307.53M1851.46 1327.32L1817.1 1307.53M1851.46 1327.32L1885.81 1307.53" stroke="#111118" stroke-miterlimit="10"/>
</svg>
