<svg width="24" height="24" viewBox="0 0 24 24" fill="none" xmlns="http://www.w3.org/2000/svg">
<path d="M15 22H9C4 22 2 20 2 15V9C2 4 4 2 9 2H15C20 2 22 4 22 9V15C22 20 20 22 15 22Z" stroke="#111118" stroke-width="1.5" stroke-linecap="round" stroke-linejoin="round"/>
<path d="M5.40391 9.654H8.18594V18.6024H5.40391V9.654ZM6.7961 8.43057C7.68438 8.43057 8.4086 7.70869 8.4086 6.81807C8.4086 6.60631 8.36689 6.39663 8.28586 6.20099C8.20482 6.00535 8.08604 5.82759 7.93631 5.67786C7.78658 5.52812 7.60881 5.40935 7.41318 5.32831C7.21754 5.24727 7.00786 5.20557 6.7961 5.20557C6.58434 5.20557 6.37466 5.24727 6.17902 5.32831C5.98339 5.40935 5.80562 5.52812 5.65589 5.67786C5.50616 5.82759 5.38738 6.00535 5.30634 6.20099C5.22531 6.39663 5.1836 6.60631 5.1836 6.81807C5.18126 7.70869 5.90313 8.43057 6.7961 8.43057ZM12.7094 14.1751C12.7094 13.0079 12.932 11.8782 14.3781 11.8782C15.8031 11.8782 15.8242 13.2118 15.8242 14.2501V18.6024H18.6039V13.6946C18.6039 11.2853 18.0836 9.43135 15.2688 9.43135C13.9164 9.43135 13.0094 10.1743 12.6367 10.8774H12.5992V9.654H9.92969V18.6024H12.7094V14.1751Z" fill="#111118"/>
</svg>
