<svg width="32" height="32" viewBox="0 0 32 32" fill="none" xmlns="http://www.w3.org/2000/svg">
<path d="M4 12.1466V19.8399C4 22.6666 4 22.6666 6.66667 24.4666L14 28.7066C15.1067 29.3466 16.9067 29.3466 18 28.7066L25.3333 24.4666C28 22.6666 28 22.6666 28 19.8532V12.1466C28 9.33323 28 9.33323 25.3333 7.53323L18 3.29323C16.9067 2.65323 15.1067 2.65323 14 3.29323L6.66667 7.53323C4 9.33323 4 9.33323 4 12.1466Z" stroke="#111118" stroke-width="1.5" stroke-linecap="round" stroke-linejoin="round"/>
<path d="M16 20C18.2091 20 20 18.2091 20 16C20 13.7909 18.2091 12 16 12C13.7909 12 12 13.7909 12 16C12 18.2091 13.7909 20 16 20Z" stroke="#111118" stroke-width="1.5" stroke-linecap="round" stroke-linejoin="round"/>
</svg>
