<svg width="24" height="24" viewBox="0 0 24 24" fill="none" xmlns="http://www.w3.org/2000/svg">
<path d="M17 20H7C4 20 2 18 2 15V9C2 6 4 4 7 4H17C20 4 22 6 22 9V15C22 18 20 20 17 20Z" stroke="#111118" stroke-width="1.5" stroke-miterlimit="10" stroke-linecap="round" stroke-linejoin="round"/>
<path d="M10.8871 10.3576L13.364 11.8437C13.5099 11.944 13.5578 12.0179 13.5725 12.0501C13.5578 12.0822 13.5099 12.1561 13.364 12.2564L10.8871 13.7426C10.7685 13.8137 10.6843 13.8411 10.6357 13.8511C10.62 13.8063 10.6016 13.7257 10.6016 13.6001V10.6001C10.6016 10.4272 10.6221 10.3125 10.6423 10.2433C10.6982 10.2601 10.7801 10.2934 10.8871 10.3576ZM13.5784 12.0679C13.5782 12.0679 13.5776 12.066 13.5772 12.0619C13.5784 12.0658 13.5786 12.0678 13.5784 12.0679ZM13.5772 12.0382C13.5776 12.0341 13.5782 12.0322 13.5784 12.0322C13.5786 12.0323 13.5784 12.0343 13.5772 12.0382Z" stroke="#111118" stroke-width="2" stroke-miterlimit="10" stroke-linecap="round" stroke-linejoin="round"/>
</svg>
