<svg width="220" height="64" viewBox="0 0 220 64" fill="none" xmlns="http://www.w3.org/2000/svg">
<g clip-path="url(#clip0_691_2061)">
<path d="M47.6335 29.0644L58.8862 22.0946C59.6278 21.6352 59.999 20.8995 59.9997 20.1635C60.0004 19.4262 59.9998 18.1309 59.9997 17.5513C59.9996 16.9717 59.246 17.3284 58.8862 17.5513C53.0246 21.1826 50.2165 22.9221 48.8712 23.7554C48.3303 24.0904 46.883 24.9119 46.2468 24.9119H17.7538C17.638 24.9119 17.5227 24.9044 17.4089 24.8897C16.7223 24.8008 16.0091 24.2998 15.4206 23.9351C14.207 23.1831 11.4368 21.4672 5.1136 17.5513C4.75375 17.3285 4.00008 16.9707 4.00008 17.5513C4.00008 17.5513 4.00628 19.4125 4.00008 20.1429C3.99378 20.8857 4.365 21.6309 5.1136 22.0946L16.3663 29.0644C16.7771 29.3188 17.2597 29.4546 17.7534 29.4546H46.2464C46.7401 29.4546 47.2227 29.3188 47.6335 29.0644Z" fill="#0075C1"/>
<path d="M47.6335 35.1738L58.8862 28.204C59.6278 27.7446 59.999 27.0089 59.9997 26.2729C60.0004 25.5356 59.9998 24.2403 59.9997 23.6607C59.9996 23.0811 59.246 23.4378 58.8862 23.6607C53.0246 27.292 50.2165 29.0315 48.8712 29.8648C48.3303 30.1998 46.883 31.0212 46.2468 31.0212H17.7538C17.638 31.0212 17.5227 31.0138 17.4089 30.999C16.7223 30.9102 16.0091 30.4091 15.4206 30.0445C14.207 29.2925 11.4368 27.5765 5.1136 23.6607C4.75375 23.4379 4.00008 23.0801 4.00008 23.6607C4.00008 23.6607 4.00628 25.5219 4.00008 26.2523C3.99378 26.9951 4.365 27.7403 5.1136 28.204L16.3663 35.1738C16.7771 35.4282 17.2597 35.5639 17.7534 35.5639H46.2464C46.7401 35.5639 47.2227 35.4282 47.6335 35.1738Z" fill="#009E96"/>
<path d="M47.6335 41.2822L58.8862 34.3124C59.6278 33.853 59.999 33.1173 59.9997 32.3813C60.0004 31.644 59.9998 30.3487 59.9997 29.7691C59.9996 29.1895 59.246 29.5462 58.8862 29.7691C53.0246 33.4004 50.2165 35.1399 48.8712 35.9732C48.3303 36.3082 46.883 37.1296 46.2468 37.1296H17.7538C17.638 37.1296 17.5227 37.1222 17.4089 37.1074C16.7223 37.0186 16.0091 36.5175 15.4206 36.1529C14.207 35.4009 11.4368 33.6849 5.1136 29.7691C4.75375 29.5463 4.00008 29.1885 4.00008 29.7691C4.00008 29.7691 4.00628 31.6303 4.00008 32.3607C3.99378 33.1035 4.365 33.8487 5.1136 34.3124L16.3663 41.2822C16.7771 41.5366 17.2597 41.6723 17.7534 41.6723H46.2464C46.7401 41.6723 47.2227 41.5366 47.6335 41.2822Z" fill="#AACD06"/>
<path d="M47.6335 53.5007L58.8862 46.5309C59.6278 46.0715 59.999 45.3358 59.9997 44.5998C60.0004 43.8625 59.9998 42.5672 59.9997 41.9876C59.9996 41.408 59.246 41.7647 58.8862 41.9876C53.0246 45.6189 50.2165 47.3584 48.8712 48.1917C48.3303 48.5267 46.883 49.3481 46.2468 49.3481H17.7538C17.638 49.3481 17.5227 49.3407 17.4089 49.3259C16.7223 49.2371 16.0091 48.7361 15.4206 48.3714C14.207 47.6194 11.4368 45.9034 5.1136 41.9876C4.75375 41.7648 4.00008 41.407 4.00008 41.9876C4.00008 41.9876 4.00628 43.8488 4.00008 44.5792C3.99378 45.322 4.365 46.0672 5.1136 46.5309L16.3663 53.5007C16.7771 53.7551 17.2597 53.8908 17.7534 53.8908H46.2464C46.7401 53.8908 47.2227 53.7551 47.6335 53.5007Z" fill="#F6AB00"/>
<path d="M47.6335 47.3915L58.8862 40.4218C59.6278 39.9624 59.999 39.2267 59.9997 38.4907C60.0004 37.7534 59.9998 36.4581 59.9997 35.8785C59.9996 35.2989 59.246 35.6556 58.8862 35.8785C53.0246 39.5098 50.2165 41.2493 48.8712 42.0826C48.3303 42.4176 46.883 43.239 46.2468 43.239H17.7538C17.638 43.239 17.5227 43.2315 17.4089 43.2168C16.7223 43.128 16.0091 42.6269 15.4206 42.2623C14.207 41.5103 11.4368 39.7943 5.1136 35.8785C4.75375 35.6556 4.00008 35.2979 4.00008 35.8785C4.00008 35.8785 4.00628 37.7397 4.00008 38.4701C3.99378 39.2129 4.365 39.9581 5.1136 40.4217L16.3663 47.3915C16.7771 47.6459 17.2597 47.7817 17.7534 47.7817H46.2464C46.7401 47.7817 47.2227 47.646 47.6335 47.3915Z" fill="#FFF100"/>
<path d="M47.6335 59.6103L58.8862 52.6405C59.6278 52.1811 59.999 51.4454 59.9997 50.7094C60.0004 49.9721 59.9998 48.6768 59.9997 48.0972C59.9996 47.5176 59.246 47.8743 58.8862 48.0972C53.0246 51.7285 50.2165 53.468 48.8712 54.3013C48.3303 54.6363 46.883 55.4578 46.2468 55.4578H17.7538C17.638 55.4578 17.5227 55.4503 17.4089 55.4356C16.7223 55.3467 16.0091 54.8457 15.4206 54.481C14.207 53.729 11.4368 52.0131 5.1136 48.0972C4.75375 47.8744 4.00008 47.5166 4.00008 48.0972C4.00008 48.0972 4.00628 49.9584 4.00008 50.6888C3.99378 51.4316 4.365 52.1768 5.1136 52.6405L16.3663 59.6103C16.7771 59.8647 17.2597 60.0005 17.7534 60.0005H46.2464C46.7401 60.0005 47.2227 59.8647 47.6335 59.6103Z" fill="#E6002D"/>
<path d="M58.8861 11.5263C60.3708 12.4667 60.3708 14.5394 58.8861 15.4798L47.6334 22.6071C47.2226 22.8673 46.74 23.0061 46.2463 23.0061H17.7533C17.2596 23.0061 16.777 22.8673 16.3662 22.6071L5.11352 15.4798C3.62883 14.5394 3.62883 12.4667 5.11352 11.5263L16.3662 4.39901C16.777 4.13883 17.2596 4 17.7533 4L46.2463 4C46.74 4 47.2226 4.13884 47.6334 4.39901L58.8861 11.5263Z" fill="#A40182"/>
<path d="M101.583 18.3894V23.7246H94.1897V45.7274H87.393V23.7246H80V18.3894H101.583Z" fill="#111118"/>
<path d="M118.19 46C115.567 46 113.155 45.4029 110.956 44.2086C108.783 43.0144 107.047 41.3528 105.749 39.2239C104.477 37.0691 103.841 34.6546 103.841 31.9805C103.841 29.3064 104.477 26.905 105.749 24.7761C107.047 22.6472 108.783 20.9856 110.956 19.7914C113.155 18.5971 115.567 18 118.19 18C120.813 18 123.211 18.5971 125.384 19.7914C127.583 20.9856 129.306 22.6472 130.551 24.7761C131.823 26.905 132.459 29.3064 132.459 31.9805C132.459 34.6546 131.823 37.0691 130.551 39.2239C129.279 41.3528 127.557 43.0144 125.384 44.2086C123.211 45.4029 120.813 46 118.19 46ZM118.19 39.9249C120.416 39.9249 122.191 39.198 123.516 37.7441C124.867 36.2902 125.543 34.369 125.543 31.9805C125.543 29.5661 124.867 27.6449 123.516 26.217C122.191 24.7631 120.416 24.0362 118.19 24.0362C115.937 24.0362 114.136 24.7501 112.784 26.178C111.459 27.6059 110.797 29.5401 110.797 31.9805C110.797 34.395 111.459 36.3292 112.784 37.783C114.136 39.2109 115.937 39.9249 118.19 39.9249Z" fill="#111118"/>
<path d="M160.407 18.3894V45.7274H153.61V34.4729H143.037V45.7274H136.24V18.3894H143.037V29.0987H153.61V18.3894H160.407Z" fill="#111118"/>
<path d="M175.409 46C173.369 46 171.54 45.6755 169.924 45.0264C168.307 44.3774 167.009 43.4168 166.029 42.1446C165.075 40.8725 164.571 39.3408 164.518 37.5494H171.752C171.858 38.5619 172.216 39.3407 172.825 39.886C173.435 40.4052 174.23 40.6648 175.21 40.6648C176.217 40.6648 177.012 40.4441 177.595 40.0028C178.178 39.5355 178.469 38.8994 178.469 38.0946C178.469 37.4196 178.231 36.8614 177.754 36.42C177.304 35.9787 176.734 35.6152 176.045 35.3296C175.382 35.044 174.428 34.7195 173.183 34.356C171.381 33.8108 169.911 33.2656 168.771 32.7204C167.632 32.1752 166.651 31.3704 165.83 30.306C165.008 29.2415 164.598 27.8526 164.598 26.1391C164.598 23.5948 165.538 21.6087 167.42 20.1808C169.301 18.7269 171.752 18 174.773 18C177.847 18 180.324 18.7269 182.206 20.1808C184.087 21.6087 185.094 23.6078 185.226 26.178H177.873C177.82 25.2953 177.489 24.6073 176.88 24.114C176.27 23.5948 175.488 23.3352 174.534 23.3352C173.713 23.3352 173.051 23.5559 172.547 23.9972C172.044 24.4126 171.792 25.0227 171.792 25.8275C171.792 26.7102 172.216 27.3982 173.064 27.8915C173.912 28.3848 175.237 28.917 177.039 29.4882C178.84 30.0853 180.298 30.6565 181.411 31.2017C182.55 31.7469 183.531 32.5387 184.352 33.5772C185.173 34.6157 185.584 35.9527 185.584 37.5883C185.584 39.146 185.173 40.561 184.352 41.8331C183.557 43.1052 182.391 44.1178 180.854 44.8707C179.317 45.6236 177.502 46 175.409 46Z" fill="#111118"/>
<path d="M207.136 40.8985H196.723L195.053 45.7274H187.939L198.034 18.3894H205.904L216 45.7274H208.806L207.136 40.8985ZM205.388 35.758L201.93 25.7497L198.511 35.758H205.388Z" fill="#111118"/>
</g>
<defs>
<clipPath id="clip0_691_2061">
<rect width="220" height="64" fill="white"/>
</clipPath>
</defs>
</svg>
